<svg xmlns:xlink="http://www.w3.org/1999/xlink" xmlns="http://www.w3.org/2000/svg" viewBox="0 0 370.29824561403507 31.741852660247066" preserveAspectRatio="xMidYMid meet" class="css-x79sxs" id="eaagefcd" width="120" height="10.286363395844505"><defs id="SvgjsDefs1001"></defs><g id="SvgjsG1007" featurekey="symbolFeature-0" transform="matrix(0.3446266579871159,0,0,0.3446266579871159,-1.8189394587873138,-1.8839399639796208)" fill="#111111"><g xmlns="http://www.w3.org/2000/svg" fill="#111111"><circle cx="50.039" cy="65.487" r="6.124" fill="#111111"></circle><circle cx="20.154" cy="65.487" r="6.124" fill="#111111"></circle><circle cx="79.924" cy="65.054" r="6.124" fill="#111111"></circle><g fill="#111111"><path fill-rule="evenodd" clip-rule="evenodd" d="M31.105,28.306l0.157,5.128l4.847,0.981c0.385,1.294,0.946,2.511,1.653,3.624    l-2.488,4.3l3.737,3.515l4.183-2.775c1.137,0.608,2.361,1.073,3.649,1.362l1.3,4.873l5.128-0.157l1.012-4.998    c1.232-0.376,2.393-0.91,3.46-1.579l4.433,2.566l3.515-3.737l-2.845-4.288c0.589-1.098,1.042-2.277,1.334-3.518l4.97-1.326    l-0.157-5.128l-5.022-1.016c-0.365-1.234-0.89-2.396-1.548-3.467l2.559-4.421l-3.737-3.515l-4.214,2.795    c-1.126-0.62-2.343-1.093-3.623-1.398l-1.296-4.857l-5.128,0.157l-0.988,4.88c-1.294,0.375-2.513,0.918-3.629,1.613l-4.288-2.481    l-3.515,3.737l2.725,4.108c-0.64,1.166-1.126,2.426-1.428,3.755L31.105,28.306z M49.866,24.702    c3.07-0.094,5.634,2.319,5.728,5.388c0.094,3.07-2.319,5.634-5.388,5.728c-3.07,0.094-5.634-2.319-5.728-5.388    S46.796,24.796,49.866,24.702z" fill="#111111"></path></g><g fill="#111111"><path fill-rule="evenodd" clip-rule="evenodd" d="M5.278,44.897l1.285,3.849l3.895-0.359c0.586,0.893,1.287,1.687,2.076,2.369    l-0.907,3.823l3.63,1.813l2.538-3.053c1,0.202,2.032,0.276,3.074,0.202l2.093,3.395l3.849-1.285l-0.37-4.016    c0.848-0.565,1.606-1.234,2.262-1.983l3.942,0.935l1.813-3.63l-3.13-2.602c0.197-0.966,0.271-1.962,0.211-2.969l3.464-2.135    l-1.285-3.849l-4.035,0.372c-0.557-0.852-1.219-1.613-1.961-2.274l0.933-3.931l-3.63-1.813l-2.556,3.076    c-0.994-0.214-2.024-0.295-3.063-0.235l-2.086-3.385l-3.849,1.285l0.362,3.921c-0.895,0.578-1.695,1.267-2.382,2.047l-3.812-0.905    l-1.813,3.63l2.999,2.492c-0.22,1.029-0.301,2.094-0.227,3.169L5.278,44.897z M18.671,37.9c2.304-0.769,4.795,0.475,5.565,2.779    s-0.475,4.795-2.779,5.565c-2.304,0.769-4.795-0.475-5.565-2.779C15.122,41.161,16.367,38.669,18.671,37.9z" fill="#111111"></path></g><g fill="#111111"><path fill-rule="evenodd" clip-rule="evenodd" d="M65.077,45.651l1.536,3.756l3.863-0.615c0.644,0.852,1.396,1.598,2.228,2.227    l-0.653,3.875l3.742,1.57l2.331-3.214c1.011,0.136,2.046,0.141,3.081-0.001l2.312,3.25l3.756-1.536l-0.634-3.983    c0.809-0.619,1.521-1.337,2.126-2.127l3.995,0.674l1.57-3.742l-3.295-2.39c0.133-0.976,0.142-1.976,0.015-2.976l3.315-2.359    l-1.536-3.756l-4.002,0.637c-0.612-0.813-1.323-1.529-2.107-2.14l0.672-3.984l-3.742-1.57l-2.348,3.237    c-1.006-0.148-2.039-0.161-3.071-0.033l-2.305-3.24l-3.756,1.536l0.619,3.889c-0.855,0.636-1.608,1.376-2.242,2.2l-3.864-0.652    l-1.57,3.742l3.157,2.29c-0.151,1.041-0.163,2.109-0.018,3.177L65.077,45.651z M77.98,37.788c2.248-0.919,4.816,0.158,5.736,2.407    s-0.158,4.816-2.407,5.736c-2.248,0.919-4.816-0.158-5.736-2.407C74.654,41.275,75.731,38.707,77.98,37.788z" fill="#111111"></path></g><path fill-rule="evenodd" clip-rule="evenodd" d="M91.168,76.248c-0.212-1.696-1.652-2.969-3.361-2.971l-16.691-0.018   c-1.754-0.002-3.221,1.335-3.38,3.083L66.599,88.8h-3.802l-1.513-12.12c-0.212-1.696-1.652-2.969-3.361-2.971l-16.691-0.018   c-1.755-0.002-3.221,1.335-3.381,3.083L36.753,88.8h-3.842l-1.513-12.12c-0.212-1.696-1.652-2.969-3.361-2.971l-16.691-0.018   c-1.755-0.002-3.221,1.335-3.38,3.083L6.348,94.497l0,0h87.044L91.168,76.248z" fill="#111111"></path></g></g><g id="SvgjsG1008" featurekey="nameFeature-0" transform="matrix(1.0680301288933702,0,0,1.0680301288933702,51,-11.492006468451166)" fill="#111111"><path d="M5.48 40.24 c-3.04 0 -5.48 -2.48 -5.48 -5.48 l0 -4.36 l3.88 0 l0 4.36 c0 0.88 0.72 1.6 1.6 1.6 s1.56 -0.72 1.56 -1.6 l0 -3.8 l-7.04 -9.72 l0 -4.96 c0 -3.04 2.44 -5.52 5.48 -5.52 c3 0 5.44 2.48 5.44 5.52 l0 4.32 l-3.88 0 l0 -4.32 c0 -0.92 -0.68 -1.6 -1.56 -1.6 s-1.6 0.68 -1.6 1.6 l0 3.64 l7.04 9.72 l0 5.12 c0 3 -2.44 5.48 -5.44 5.48 z M18.12 39.92 c-2.88 0 -5.2 -2.36 -5.2 -5.24 l0 -12.48 c0 -2.64 2.16 -4.8 4.8 -4.8 l0.84 0 c2.64 0 4.8 2.16 4.8 4.8 l0 5.24 l-6.72 0.12 l0 7.12 c0 0.84 0.64 1.52 1.48 1.52 s1.52 -0.68 1.52 -1.52 l0 -2.48 l3.72 0 l0 2.48 c0 2.88 -2.36 5.24 -5.24 5.24 z M18.56 21.08 l-0.84 0 c-0.6 0 -1.08 0.52 -1.08 1.12 l0 1.68 l3 -0.08 l0 -1.6 c0 -0.6 -0.48 -1.12 -1.08 -1.12 z M31.04 40 l-0.8 0 c-2.68 0 -4.88 -2.16 -4.88 -4.84 l0.08 -13.12 c0 -2.68 2.2 -4.84 4.88 -4.84 l0.8 0 c2.68 0 4.88 2.16 4.88 4.84 l0 3.2 l-3.76 0 l0 -3.2 c0 -0.6 -0.48 -1.08 -1.12 -1.08 l-0.8 0 c-0.64 0 -1.12 0.48 -1.12 1.08 l-0.08 13.12 c0 0.6 0.48 1.08 1.12 1.08 l0.8 0 c0.64 0 1.12 -0.48 1.12 -1.08 l0 -3.76 l3.76 0 l0 3.76 c0 2.68 -2.16 4.84 -4.88 4.84 z M43.68 17.64 l3.8 0 l0 22.84 l-3.8 0 l0 -0.84 c-0.28 0.08 -0.6 0.12 -0.92 0.12 c-2.64 0 -4.76 -2.16 -4.76 -4.76 l0 -17.32 l3.8 0 l0 17.32 c0 0.52 0.44 0.96 0.96 0.96 s0.92 -0.44 0.92 -0.96 l0 -17.36 z M55.28 18.28 c2.72 0 4.92 2.16 4.92 4.88 l0 1.92 l-3.8 0 l0 -1.92 c0 -0.64 -0.48 -1.12 -1.12 -1.12 l-0.84 0 c-0.6 0 -1.12 0.48 -1.12 1.12 l-0.08 16.88 l-3.76 0 l0.08 -16.88 l0 -5.76 l3.76 0 l0 1 c0.36 -0.08 0.76 -0.12 1.12 -0.12 l0.84 0 z M66.44 39.92 c-2.88 0 -5.2 -2.36 -5.2 -5.24 l0 -12.48 c0 -2.64 2.16 -4.8 4.8 -4.8 l0.84 0 c2.64 0 4.8 2.16 4.8 4.8 l0 5.24 l-6.72 0.12 l0 7.12 c0 0.84 0.64 1.52 1.48 1.52 s1.52 -0.68 1.52 -1.52 l0 -2.48 l3.72 0 l0 2.48 c0 2.88 -2.36 5.24 -5.24 5.24 z M66.88 21.08 l-0.84 0 c-0.6 0 -1.08 0.52 -1.08 1.12 l0 1.68 l3 -0.08 l0 -1.6 c0 -0.6 -0.48 -1.12 -1.08 -1.12 z M92.64000000000001 40.08 l-4.08 0 l-2.2 -6.04 l-0.88 0 l0 6.04 l-3.8 0 l0 -28.64 l5.96 0 c2.64 0 4.76 2.12 4.76 4.76 l0 13.08 c0 1.72 -0.88 3.2 -2.24 4.04 z M85.48 15.239999999999998 l0 15 l2.16 0 c0.52 0 0.96 -0.44 0.96 -0.96 l0 -13.08 c0 -0.52 -0.44 -0.96 -0.96 -0.96 l-2.16 0 z M99.84000000000002 39.92 c-2.88 0 -5.2 -2.36 -5.2 -5.24 l0 -12.48 c0 -2.64 2.16 -4.8 4.8 -4.8 l0.84 0 c2.64 0 4.8 2.16 4.8 4.8 l0 5.24 l-6.72 0.12 l0 7.12 c0 0.84 0.64 1.52 1.48 1.52 s1.52 -0.68 1.52 -1.52 l0 -2.48 l3.72 0 l0 2.48 c0 2.88 -2.36 5.24 -5.24 5.24 z M100.28000000000002 21.08 l-0.84 0 c-0.6 0 -1.08 0.52 -1.08 1.12 l0 1.68 l3 -0.08 l0 -1.6 c0 -0.6 -0.48 -1.12 -1.08 -1.12 z M112.76000000000002 40 l-0.8 0 c-2.68 0 -4.88 -2.16 -4.88 -4.84 l0.08 -13.12 c0 -2.68 2.2 -4.84 4.88 -4.84 l0.8 0 c2.68 0 4.88 2.16 4.88 4.84 l0 3.2 l-3.76 0 l0 -3.2 c0 -0.6 -0.48 -1.08 -1.12 -1.08 l-0.8 0 c-0.64 0 -1.12 0.48 -1.12 1.08 l-0.08 13.12 c0 0.6 0.48 1.08 1.12 1.08 l0.8 0 c0.64 0 1.12 -0.48 1.12 -1.08 l0 -3.76 l3.76 0 l0 3.76 c0 2.68 -2.16 4.84 -4.88 4.84 z M125.52000000000001 18.28 c2.72 0 4.92 2.16 4.92 4.88 l0 1.92 l-3.8 0 l0 -1.92 c0 -0.64 -0.48 -1.12 -1.12 -1.12 l-0.84 0 c-0.6 0 -1.12 0.48 -1.12 1.12 l-0.08 16.88 l-3.76 0 l0.08 -16.88 l0 -5.76 l3.76 0 l0 1 c0.36 -0.08 0.76 -0.12 1.12 -0.12 l0.84 0 z M138.12000000000003 17.64 l3.8 0 l0 22.84 l-3.8 0 l0 -0.84 c-0.28 0.08 -0.6 0.12 -0.92 0.12 c-2.64 0 -4.76 -2.16 -4.76 -4.76 l0 -17.32 l3.8 0 l0 17.32 c0 0.52 0.44 0.96 0.96 0.96 s0.92 -0.44 0.92 -0.96 l0 -17.36 z M147.72000000000003 39.88 c0.04 -6.28 0.04 -16.32 0 -22.52 l-3.8 0.04 c0.04 6.16 0.04 16.16 0 22.44 z M143.92000000000002 12.600000000000001 l3.8 0 l0 3.72 l-3.8 0 l0 -3.72 z M158.44000000000003 21.2 l-2.72 0 l0 12.76 c0 1.2 1 2.16 2.2 2.16 l0 3.84 c-3.32 0 -6 -2.68 -6 -6 l0 -12.76 l-2.72 0 l0 -3.84 l2.72 0 l0 -6 l3.8 0 l0 6 l2.72 0 l0 3.84 z M170.8 17.36 c2.6 0 4.72 2.12 4.72 4.72 l0 17.8 l-3.76 0 l0 -17.8 c0 -0.52 -0.44 -0.92 -0.96 -0.92 s-0.92 0.4 -0.92 0.92 l0 17.8 l-3.8 0 l0 -17.8 c0 -0.52 -0.4 -0.92 -0.92 -0.92 s-0.96 0.4 -0.96 0.92 l0 18 l-3.76 0 l0 -23.48 l3.76 0 l0 0.88 c0.32 -0.08 0.64 -0.12 0.96 -0.12 c1.04 0 2.04 0.36 2.84 0.96 c0.76 -0.6 1.76 -0.96 2.8 -0.96 z M182.72000000000003 39.92 c-2.88 0 -5.2 -2.36 -5.2 -5.24 l0 -12.48 c0 -2.64 2.16 -4.8 4.8 -4.8 l0.84 0 c2.64 0 4.8 2.16 4.8 4.8 l0 5.24 l-6.72 0.12 l0 7.12 c0 0.84 0.64 1.52 1.48 1.52 s1.52 -0.68 1.52 -1.52 l0 -2.48 l3.72 0 l0 2.48 c0 2.88 -2.36 5.24 -5.24 5.24 z M183.16000000000003 21.08 l-0.84 0 c-0.6 0 -1.08 0.52 -1.08 1.12 l0 1.68 l3 -0.08 l0 -1.6 c0 -0.6 -0.48 -1.12 -1.08 -1.12 z M194.76000000000005 17.36 c2.64 0 4.8 2.16 4.8 4.8 l0 18 l-3.84 0 l0 -18 c0 -0.52 -0.44 -0.96 -0.96 -0.96 s-0.96 0.44 -0.96 0.96 l0 18 l-3.84 0 l0 -23.52 l3.84 0 l0 0.84 c0.32 -0.08 0.64 -0.12 0.96 -0.12 z M209.96000000000004 21.2 l-2.72 0 l0 12.76 c0 1.2 1 2.16 2.2 2.16 l0 3.84 c-3.32 0 -6 -2.68 -6 -6 l0 -12.76 l-2.72 0 l0 -3.84 l2.72 0 l0 -6 l3.8 0 l0 6 l2.72 0 l0 3.84 z M225.44000000000003 40.24 c-3.04 0 -5.48 -2.48 -5.48 -5.48 l0 -4.36 l3.88 0 l0 4.36 c0 0.88 0.72 1.6 1.6 1.6 s1.56 -0.72 1.56 -1.6 l0 -3.8 l-7.04 -9.72 l0 -4.96 c0 -3.04 2.44 -5.52 5.48 -5.52 c3 0 5.44 2.48 5.44 5.52 l0 4.32 l-3.88 0 l0 -4.32 c0 -0.92 -0.68 -1.6 -1.56 -1.6 s-1.6 0.68 -1.6 1.6 l0 3.64 l7.04 9.72 l0 5.12 c0 3 -2.44 5.48 -5.44 5.48 z M238.08 39.92 c-2.88 0 -5.2 -2.36 -5.2 -5.24 l0 -12.48 c0 -2.64 2.16 -4.8 4.8 -4.8 l0.84 0 c2.64 0 4.8 2.16 4.8 4.8 l0 5.24 l-6.72 0.12 l0 7.12 c0 0.84 0.64 1.52 1.48 1.52 s1.52 -0.68 1.52 -1.52 l0 -2.48 l3.72 0 l0 2.48 c0 2.88 -2.36 5.24 -5.24 5.24 z M238.52 21.08 l-0.84 0 c-0.6 0 -1.08 0.52 -1.08 1.12 l0 1.68 l3 -0.08 l0 -1.6 c0 -0.6 -0.48 -1.12 -1.08 -1.12 z M251.12000000000003 18.28 c2.72 0 4.92 2.16 4.92 4.88 l0 1.92 l-3.8 0 l0 -1.92 c0 -0.64 -0.48 -1.12 -1.12 -1.12 l-0.84 0 c-0.6 0 -1.12 0.48 -1.12 1.12 l-0.08 16.88 l-3.76 0 l0.08 -16.88 l0 -5.76 l3.76 0 l0 1 c0.36 -0.08 0.76 -0.12 1.12 -0.12 l0.84 0 z M261.24 39.96 c-0.4 -3.4 -0.96 -6.8 -1.48 -10.12 c-0.6 -3.88 -1.28 -8.28 -1.72 -12.36 l3.88 0 c0.32 3.12 0.76 6.24 1.24 9.28 c0.04 -0.2 0.08 -0.4 0.08 -0.56 c0.16 -1.6 0.36 -3.12 0.52 -4.56 c0.2 -1.4 0.36 -2.76 0.48 -4.08 l3.8 0 c-0.12 1.44 -0.28 3.2 -0.48 4.6 s-0.36 2.88 -0.52 4.4 l0 0.16 c-0.44 2.76 -0.8 5.48 -1.16 8.12 c-0.2 1.68 -0.44 3.44 -0.68 5.16 l-3.96 0 l0 -0.04 z M273.84000000000003 39.88 c0.04 -6.28 0.04 -16.32 0 -22.52 l-3.8 0.04 c0.04 6.16 0.04 16.16 0 22.44 z M270.04 12.600000000000001 l3.8 0 l0 3.72 l-3.8 0 l0 -3.72 z M281.56 40 l-0.8 0 c-2.68 0 -4.88 -2.16 -4.88 -4.84 l0.08 -13.12 c0 -2.68 2.2 -4.84 4.88 -4.84 l0.8 0 c2.68 0 4.88 2.16 4.88 4.84 l0 3.2 l-3.76 0 l0 -3.2 c0 -0.6 -0.48 -1.08 -1.12 -1.08 l-0.8 0 c-0.64 0 -1.12 0.48 -1.12 1.08 l-0.08 13.12 c0 0.6 0.48 1.08 1.12 1.08 l0.8 0 c0.64 0 1.12 -0.48 1.12 -1.08 l0 -3.76 l3.76 0 l0 3.76 c0 2.68 -2.16 4.84 -4.88 4.84 z M293.71999999999997 39.92 c-2.88 0 -5.2 -2.36 -5.2 -5.24 l0 -12.48 c0 -2.64 2.16 -4.8 4.8 -4.8 l0.84 0 c2.64 0 4.8 2.16 4.8 4.8 l0 5.24 l-6.72 0.12 l0 7.12 c0 0.84 0.64 1.52 1.48 1.52 s1.52 -0.68 1.52 -1.52 l0 -2.48 l3.72 0 l0 2.48 c0 2.88 -2.36 5.24 -5.24 5.24 z M294.15999999999997 21.08 l-0.84 0 c-0.6 0 -1.08 0.52 -1.08 1.12 l0 1.68 l3 -0.08 l0 -1.6 c0 -0.6 -0.48 -1.12 -1.08 -1.12 z" fill="#111111"></path></g></svg>